<mxfile host="65bd71144e">
    <diagram id="topvHqCqziTGHagpNfaV" name="PÃ¡gina-1">
        <mxGraphModel dx="1098" dy="787" grid="1" gridSize="10" guides="1" tooltips="1" connect="1" arrows="1" fold="1" page="1" pageScale="1" pageWidth="850" pageHeight="1100" math="0" shadow="0">
            <root>
                <mxCell id="0"/>
                <mxCell id="1" parent="0"/>
                <mxCell id="2" value="" style="rounded=0;whiteSpace=wrap;html=1;" vertex="1" parent="1">
                    <mxGeometry x="40" y="40" width="510" height="420" as="geometry"/>
                </mxCell>
                <mxCell id="3" value="OBSCUR" style="rounded=0;whiteSpace=wrap;html=1;" vertex="1" parent="1">
                    <mxGeometry x="40" y="40" width="510" height="60" as="geometry"/>
                </mxCell>
                <mxCell id="58" style="edgeStyle=none;html=1;endArrow=none;endFill=0;" edge="1" parent="1">
                    <mxGeometry relative="1" as="geometry">
                        <mxPoint x="560" y="70" as="sourcePoint"/>
                        <mxPoint x="560" y="530" as="targetPoint"/>
                        <Array as="points">
                            <mxPoint x="560" y="310"/>
                        </Array>
                    </mxGeometry>
                </mxCell>
                <mxCell id="64" style="edgeStyle=none;html=1;exitX=0.5;exitY=0;exitDx=0;exitDy=0;endArrow=none;endFill=0;" edge="1" parent="1" source="4">
                    <mxGeometry relative="1" as="geometry">
                        <mxPoint x="430" y="20" as="targetPoint"/>
                    </mxGeometry>
                </mxCell>
                <mxCell id="4" value="Login" style="rounded=0;whiteSpace=wrap;html=1;" vertex="1" parent="1">
                    <mxGeometry x="410" y="60" width="40" height="20" as="geometry"/>
                </mxCell>
                <mxCell id="60" style="edgeStyle=none;html=1;exitX=1;exitY=0.5;exitDx=0;exitDy=0;endArrow=none;endFill=0;" edge="1" parent="1" source="5">
                    <mxGeometry relative="1" as="geometry">
                        <mxPoint x="560" y="70" as="targetPoint"/>
                    </mxGeometry>
                </mxCell>
                <mxCell id="5" value="Register" style="rounded=0;whiteSpace=wrap;html=1;" vertex="1" parent="1">
                    <mxGeometry x="470" y="60" width="60" height="20" as="geometry"/>
                </mxCell>
                <mxCell id="6" value="LOGO" style="ellipse;whiteSpace=wrap;html=1;aspect=fixed;" vertex="1" parent="1">
                    <mxGeometry x="50" y="45" width="50" height="50" as="geometry"/>
                </mxCell>
                <mxCell id="9" value="" style="rounded=0;whiteSpace=wrap;html=1;" vertex="1" parent="1">
                    <mxGeometry x="40" y="100" width="510" height="150" as="geometry"/>
                </mxCell>
                <mxCell id="10" value="NOTICIA" style="whiteSpace=wrap;html=1;aspect=fixed;" vertex="1" parent="1">
                    <mxGeometry x="60" y="270" width="80" height="80" as="geometry"/>
                </mxCell>
                <mxCell id="11" value="NOTICIA" style="rounded=0;whiteSpace=wrap;html=1;" vertex="1" parent="1">
                    <mxGeometry x="450" y="270" width="80" height="80" as="geometry"/>
                </mxCell>
                <mxCell id="12" value="NOTICIA" style="whiteSpace=wrap;html=1;aspect=fixed;" vertex="1" parent="1">
                    <mxGeometry x="255" y="270" width="80" height="80" as="geometry"/>
                </mxCell>
                <mxCell id="13" value="NOTICIA" style="whiteSpace=wrap;html=1;aspect=fixed;" vertex="1" parent="1">
                    <mxGeometry x="255" y="380" width="80" height="80" as="geometry"/>
                </mxCell>
                <mxCell id="14" value="NOTICIA" style="whiteSpace=wrap;html=1;aspect=fixed;" vertex="1" parent="1">
                    <mxGeometry x="60" y="380" width="80" height="80" as="geometry"/>
                </mxCell>
                <mxCell id="15" value="NOTICIA" style="whiteSpace=wrap;html=1;aspect=fixed;" vertex="1" parent="1">
                    <mxGeometry x="450" y="380" width="80" height="80" as="geometry"/>
                </mxCell>
                <mxCell id="17" value="" style="rounded=0;whiteSpace=wrap;html=1;" vertex="1" parent="1">
                    <mxGeometry x="177.5" y="100" width="235" height="150" as="geometry"/>
                </mxCell>
                <mxCell id="19" value="" style="shape=umlDestroy;" vertex="1" parent="1">
                    <mxGeometry x="180" y="100" width="230" height="150" as="geometry"/>
                </mxCell>
                <mxCell id="26" value="" style="rounded=0;whiteSpace=wrap;html=1;" vertex="1" parent="1">
                    <mxGeometry x="590" y="40" width="510" height="420" as="geometry"/>
                </mxCell>
                <mxCell id="27" value="OBSCUR" style="rounded=0;whiteSpace=wrap;html=1;" vertex="1" parent="1">
                    <mxGeometry x="590" y="40" width="510" height="60" as="geometry"/>
                </mxCell>
                <mxCell id="28" value="Login" style="rounded=0;whiteSpace=wrap;html=1;" vertex="1" parent="1">
                    <mxGeometry x="960" y="60" width="40" height="20" as="geometry"/>
                </mxCell>
                <mxCell id="29" value="Register" style="rounded=0;whiteSpace=wrap;html=1;" vertex="1" parent="1">
                    <mxGeometry x="1020" y="60" width="60" height="20" as="geometry"/>
                </mxCell>
                <mxCell id="30" value="LOGO" style="ellipse;whiteSpace=wrap;html=1;aspect=fixed;" vertex="1" parent="1">
                    <mxGeometry x="600" y="45" width="50" height="50" as="geometry"/>
                </mxCell>
                <mxCell id="31" value="" style="whiteSpace=wrap;html=1;aspect=fixed;" vertex="1" parent="1">
                    <mxGeometry x="780" y="185" width="130" height="130" as="geometry"/>
                </mxCell>
                <mxCell id="32" value="Login" style="text;html=1;strokeColor=none;fillColor=none;align=center;verticalAlign=middle;whiteSpace=wrap;rounded=0;" vertex="1" parent="1">
                    <mxGeometry x="815" y="185" width="60" height="30" as="geometry"/>
                </mxCell>
                <mxCell id="33" value="Username&lt;span style=&quot;color: rgba(0, 0, 0, 0); font-family: monospace; font-size: 0px; text-align: start;&quot;&gt;%3CmxGraphModel%3E%3Croot%3E%3CmxCell%20id%3D%220%22%2F%3E%3CmxCell%20id%3D%221%22%20parent%3D%220%22%2F%3E%3CmxCell%20id%3D%222%22%20value%3D%22%22%20style%3D%22rounded%3D0%3BwhiteSpace%3Dwrap%3Bhtml%3D1%3B%22%20vertex%3D%221%22%20parent%3D%221%22%3E%3CmxGeometry%20x%3D%2250%22%20y%3D%2220%22%20width%3D%22510%22%20height%3D%22420%22%20as%3D%22geometry%22%2F%3E%3C%2FmxCell%3E%3CmxCell%20id%3D%223%22%20value%3D%22OBSCUR%22%20style%3D%22rounded%3D0%3BwhiteSpace%3Dwrap%3Bhtml%3D1%3B%22%20vertex%3D%221%22%20parent%3D%221%22%3E%3CmxGeometry%20x%3D%2250%22%20y%3D%2220%22%20width%3D%22510%22%20height%3D%2260%22%20as%3D%22geometry%22%2F%3E%3C%2FmxCell%3E%3CmxCell%20id%3D%224%22%20value%3D%22Login%22%20style%3D%22rounded%3D0%3BwhiteSpace%3Dwrap%3Bhtml%3D1%3B%22%20vertex%3D%221%22%20parent%3D%221%22%3E%3CmxGeometry%20x%3D%22420%22%20y%3D%2240%22%20width%3D%2240%22%20height%3D%2220%22%20as%3D%22geometry%22%2F%3E%3C%2FmxCell%3E%3CmxCell%20id%3D%225%22%20value%3D%22Register%22%20style%3D%22rounded%3D0%3BwhiteSpace%3Dwrap%3Bhtml%3D1%3B%22%20vertex%3D%221%22%20parent%3D%221%22%3E%3CmxGeometry%20x%3D%22480%22%20y%3D%2240%22%20width%3D%2260%22%20height%3D%2220%22%20as%3D%22geometry%22%2F%3E%3C%2FmxCell%3E%3CmxCell%20id%3D%226%22%20value%3D%22LOGO%22%20style%3D%22ellipse%3BwhiteSpace%3Dwrap%3Bhtml%3D1%3Baspect%3Dfixed%3B%22%20vertex%3D%221%22%20parent%3D%221%22%3E%3CmxGeometry%20x%3D%2260%22%20y%3D%2225%22%20width%3D%2250%22%20height%3D%2250%22%20as%3D%22geometry%22%2F%3E%3C%2FmxCell%3E%3C%2Froot%3E%3C%2FmxGraphModel%3E&lt;/span&gt;" style="rounded=0;whiteSpace=wrap;html=1;" vertex="1" parent="1">
                    <mxGeometry x="805" y="230" width="80" height="20" as="geometry"/>
                </mxCell>
                <mxCell id="34" value="Password" style="rounded=0;whiteSpace=wrap;html=1;" vertex="1" parent="1">
                    <mxGeometry x="805" y="260" width="80" height="20" as="geometry"/>
                </mxCell>
                <mxCell id="88" style="edgeStyle=none;html=1;exitX=0.5;exitY=1;exitDx=0;exitDy=0;endArrow=classic;endFill=1;" edge="1" parent="1" source="35" target="71">
                    <mxGeometry relative="1" as="geometry"/>
                </mxCell>
                <mxCell id="35" value="Login" style="rounded=1;whiteSpace=wrap;html=1;" vertex="1" parent="1">
                    <mxGeometry x="805" y="290" width="80" height="20" as="geometry"/>
                </mxCell>
                <mxCell id="36" value="" style="rounded=0;whiteSpace=wrap;html=1;" vertex="1" parent="1">
                    <mxGeometry x="40" y="500" width="510" height="420" as="geometry"/>
                </mxCell>
                <mxCell id="37" value="OBSCUR" style="rounded=0;whiteSpace=wrap;html=1;" vertex="1" parent="1">
                    <mxGeometry x="40" y="500" width="510" height="60" as="geometry"/>
                </mxCell>
                <mxCell id="38" value="Login" style="rounded=0;whiteSpace=wrap;html=1;" vertex="1" parent="1">
                    <mxGeometry x="410" y="520" width="40" height="20" as="geometry"/>
                </mxCell>
                <mxCell id="39" value="Register" style="rounded=0;whiteSpace=wrap;html=1;" vertex="1" parent="1">
                    <mxGeometry x="470" y="520" width="60" height="20" as="geometry"/>
                </mxCell>
                <mxCell id="40" value="LOGO" style="ellipse;whiteSpace=wrap;html=1;aspect=fixed;" vertex="1" parent="1">
                    <mxGeometry x="50" y="505" width="50" height="50" as="geometry"/>
                </mxCell>
                <mxCell id="49" value="" style="rounded=0;whiteSpace=wrap;html=1;" vertex="1" parent="1">
                    <mxGeometry x="212.5" y="615" width="165" height="190" as="geometry"/>
                </mxCell>
                <mxCell id="50" value="Nombre" style="rounded=0;whiteSpace=wrap;html=1;" vertex="1" parent="1">
                    <mxGeometry x="230" y="645" width="60" height="25" as="geometry"/>
                </mxCell>
                <mxCell id="51" value="Register" style="text;html=1;strokeColor=none;fillColor=none;align=center;verticalAlign=middle;whiteSpace=wrap;rounded=0;" vertex="1" parent="1">
                    <mxGeometry x="265" y="615" width="60" height="30" as="geometry"/>
                </mxCell>
                <mxCell id="52" value="Apellido" style="rounded=0;whiteSpace=wrap;html=1;" vertex="1" parent="1">
                    <mxGeometry x="300" y="645" width="65" height="25" as="geometry"/>
                </mxCell>
                <mxCell id="53" value="Username" style="rounded=0;whiteSpace=wrap;html=1;" vertex="1" parent="1">
                    <mxGeometry x="235" y="680" width="120" height="25" as="geometry"/>
                </mxCell>
                <mxCell id="54" value="email" style="rounded=0;whiteSpace=wrap;html=1;" vertex="1" parent="1">
                    <mxGeometry x="235" y="705" width="120" height="25" as="geometry"/>
                </mxCell>
                <mxCell id="55" value="password" style="rounded=0;whiteSpace=wrap;html=1;" vertex="1" parent="1">
                    <mxGeometry x="235" y="730" width="120" height="25" as="geometry"/>
                </mxCell>
                <mxCell id="68" style="edgeStyle=none;html=1;exitX=1;exitY=0.5;exitDx=0;exitDy=0;endArrow=none;endFill=0;" edge="1" parent="1" source="56">
                    <mxGeometry relative="1" as="geometry">
                        <mxPoint x="580" y="780" as="targetPoint"/>
                    </mxGeometry>
                </mxCell>
                <mxCell id="56" value="Register" style="rounded=1;whiteSpace=wrap;html=1;" vertex="1" parent="1">
                    <mxGeometry x="235" y="770" width="120" height="20" as="geometry"/>
                </mxCell>
                <mxCell id="62" value="" style="endArrow=classic;html=1;entryX=1;entryY=0.5;entryDx=0;entryDy=0;" edge="1" parent="1" target="37">
                    <mxGeometry width="50" height="50" relative="1" as="geometry">
                        <mxPoint x="560" y="530" as="sourcePoint"/>
                        <mxPoint x="620" y="480" as="targetPoint"/>
                    </mxGeometry>
                </mxCell>
                <mxCell id="65" value="" style="endArrow=none;html=1;endFill=0;" edge="1" parent="1">
                    <mxGeometry width="50" height="50" relative="1" as="geometry">
                        <mxPoint x="430" y="20" as="sourcePoint"/>
                        <mxPoint x="850" y="20" as="targetPoint"/>
                    </mxGeometry>
                </mxCell>
                <mxCell id="66" value="" style="endArrow=classic;html=1;" edge="1" parent="1" target="27">
                    <mxGeometry width="50" height="50" relative="1" as="geometry">
                        <mxPoint x="850" y="20" as="sourcePoint"/>
                        <mxPoint x="900" y="-30" as="targetPoint"/>
                    </mxGeometry>
                </mxCell>
                <mxCell id="67" value="" style="endArrow=none;html=1;endFill=0;" edge="1" parent="1">
                    <mxGeometry width="50" height="50" relative="1" as="geometry">
                        <mxPoint x="580" y="780" as="sourcePoint"/>
                        <mxPoint x="580" y="250" as="targetPoint"/>
                    </mxGeometry>
                </mxCell>
                <mxCell id="69" value="" style="endArrow=classic;html=1;entryX=0;entryY=0.5;entryDx=0;entryDy=0;" edge="1" parent="1" target="26">
                    <mxGeometry width="50" height="50" relative="1" as="geometry">
                        <mxPoint x="580" y="250" as="sourcePoint"/>
                        <mxPoint x="630" y="200" as="targetPoint"/>
                    </mxGeometry>
                </mxCell>
                <mxCell id="70" value="" style="rounded=0;whiteSpace=wrap;html=1;" vertex="1" parent="1">
                    <mxGeometry x="590" y="500" width="510" height="420" as="geometry"/>
                </mxCell>
                <mxCell id="71" value="OBSCUR" style="rounded=0;whiteSpace=wrap;html=1;" vertex="1" parent="1">
                    <mxGeometry x="590" y="500" width="510" height="60" as="geometry"/>
                </mxCell>
                <mxCell id="72" value="Login" style="rounded=0;whiteSpace=wrap;html=1;" vertex="1" parent="1">
                    <mxGeometry x="960" y="520" width="40" height="20" as="geometry"/>
                </mxCell>
                <mxCell id="73" value="Register" style="rounded=0;whiteSpace=wrap;html=1;" vertex="1" parent="1">
                    <mxGeometry x="1020" y="520" width="60" height="20" as="geometry"/>
                </mxCell>
                <mxCell id="74" value="LOGO" style="ellipse;whiteSpace=wrap;html=1;aspect=fixed;" vertex="1" parent="1">
                    <mxGeometry x="600" y="505" width="50" height="50" as="geometry"/>
                </mxCell>
                <mxCell id="102" style="edgeStyle=none;html=1;exitX=1;exitY=0.5;exitDx=0;exitDy=0;endArrow=none;endFill=0;" edge="1" parent="1" source="79">
                    <mxGeometry relative="1" as="geometry">
                        <mxPoint x="1120" y="615" as="targetPoint"/>
                    </mxGeometry>
                </mxCell>
                <mxCell id="79" value="" style="rounded=0;whiteSpace=wrap;html=1;" vertex="1" parent="1">
                    <mxGeometry x="785" y="585" width="120" height="60" as="geometry"/>
                </mxCell>
                <mxCell id="80" value="" style="rounded=0;whiteSpace=wrap;html=1;" vertex="1" parent="1">
                    <mxGeometry x="785" y="662.5" width="120" height="60" as="geometry"/>
                </mxCell>
                <mxCell id="81" value="" style="rounded=0;whiteSpace=wrap;html=1;" vertex="1" parent="1">
                    <mxGeometry x="785" y="740" width="120" height="60" as="geometry"/>
                </mxCell>
                <mxCell id="82" value="" style="rounded=0;whiteSpace=wrap;html=1;" vertex="1" parent="1">
                    <mxGeometry x="785" y="820" width="120" height="60" as="geometry"/>
                </mxCell>
                <mxCell id="83" value="Telefonia" style="rounded=1;whiteSpace=wrap;html=1;" vertex="1" parent="1">
                    <mxGeometry x="805" y="603" width="80" height="24" as="geometry"/>
                </mxCell>
                <mxCell id="84" value="Internet" style="rounded=1;whiteSpace=wrap;html=1;" vertex="1" parent="1">
                    <mxGeometry x="805" y="680" width="80" height="24" as="geometry"/>
                </mxCell>
                <mxCell id="85" value="TV" style="rounded=1;whiteSpace=wrap;html=1;" vertex="1" parent="1">
                    <mxGeometry x="805" y="755" width="80" height="24" as="geometry"/>
                </mxCell>
                <mxCell id="86" value="Todos" style="rounded=1;whiteSpace=wrap;html=1;" vertex="1" parent="1">
                    <mxGeometry x="805" y="838" width="80" height="24" as="geometry"/>
                </mxCell>
                <mxCell id="89" value="" style="rounded=0;whiteSpace=wrap;html=1;" vertex="1" parent="1">
                    <mxGeometry x="1140" y="40" width="510" height="420" as="geometry"/>
                </mxCell>
                <mxCell id="90" value="OBSCUR" style="rounded=0;whiteSpace=wrap;html=1;" vertex="1" parent="1">
                    <mxGeometry x="1140" y="40" width="510" height="60" as="geometry"/>
                </mxCell>
                <mxCell id="91" value="Login" style="rounded=0;whiteSpace=wrap;html=1;" vertex="1" parent="1">
                    <mxGeometry x="1510" y="60" width="40" height="20" as="geometry"/>
                </mxCell>
                <mxCell id="92" value="Register" style="rounded=0;whiteSpace=wrap;html=1;" vertex="1" parent="1">
                    <mxGeometry x="1570" y="60" width="60" height="20" as="geometry"/>
                </mxCell>
                <mxCell id="93" value="LOGO" style="ellipse;whiteSpace=wrap;html=1;aspect=fixed;" vertex="1" parent="1">
                    <mxGeometry x="1150" y="45" width="50" height="50" as="geometry"/>
                </mxCell>
                <mxCell id="94" value="" style="rounded=0;whiteSpace=wrap;html=1;" vertex="1" parent="1">
                    <mxGeometry x="1335" y="125" width="120" height="60" as="geometry"/>
                </mxCell>
                <mxCell id="95" value="" style="rounded=0;whiteSpace=wrap;html=1;" vertex="1" parent="1">
                    <mxGeometry x="1335" y="202.5" width="120" height="60" as="geometry"/>
                </mxCell>
                <mxCell id="96" value="" style="rounded=0;whiteSpace=wrap;html=1;" vertex="1" parent="1">
                    <mxGeometry x="1335" y="280" width="120" height="60" as="geometry"/>
                </mxCell>
                <mxCell id="97" value="" style="rounded=0;whiteSpace=wrap;html=1;" vertex="1" parent="1">
                    <mxGeometry x="1335" y="360" width="120" height="60" as="geometry"/>
                </mxCell>
                <mxCell id="98" value="Telefonia" style="rounded=1;whiteSpace=wrap;html=1;" vertex="1" parent="1">
                    <mxGeometry x="1355" y="143" width="80" height="24" as="geometry"/>
                </mxCell>
                <mxCell id="99" value="Internet" style="rounded=1;whiteSpace=wrap;html=1;" vertex="1" parent="1">
                    <mxGeometry x="1355" y="220" width="80" height="24" as="geometry"/>
                </mxCell>
                <mxCell id="100" value="TV" style="rounded=1;whiteSpace=wrap;html=1;" vertex="1" parent="1">
                    <mxGeometry x="1355" y="295" width="80" height="24" as="geometry"/>
                </mxCell>
                <mxCell id="230" style="edgeStyle=none;html=1;exitX=0.5;exitY=1;exitDx=0;exitDy=0;entryX=0.5;entryY=0;entryDx=0;entryDy=0;endArrow=none;endFill=0;" edge="1" parent="1" source="101" target="110">
                    <mxGeometry relative="1" as="geometry"/>
                </mxCell>
                <mxCell id="101" value="Todos" style="rounded=1;whiteSpace=wrap;html=1;" vertex="1" parent="1">
                    <mxGeometry x="1355" y="378" width="80" height="24" as="geometry"/>
                </mxCell>
                <mxCell id="103" value="" style="endArrow=none;html=1;endFill=0;" edge="1" parent="1">
                    <mxGeometry width="50" height="50" relative="1" as="geometry">
                        <mxPoint x="1120" y="620" as="sourcePoint"/>
                        <mxPoint x="1120" y="250" as="targetPoint"/>
                    </mxGeometry>
                </mxCell>
                <mxCell id="104" value="" style="endArrow=classic;html=1;entryX=0;entryY=0.5;entryDx=0;entryDy=0;" edge="1" parent="1" target="89">
                    <mxGeometry width="50" height="50" relative="1" as="geometry">
                        <mxPoint x="1120" y="250" as="sourcePoint"/>
                        <mxPoint x="1180" y="300" as="targetPoint"/>
                    </mxGeometry>
                </mxCell>
                <mxCell id="109" value="" style="rounded=0;whiteSpace=wrap;html=1;" vertex="1" parent="1">
                    <mxGeometry x="1140" y="500" width="510" height="420" as="geometry"/>
                </mxCell>
                <mxCell id="110" value="OBSCUR" style="rounded=0;whiteSpace=wrap;html=1;" vertex="1" parent="1">
                    <mxGeometry x="1140" y="500" width="510" height="60" as="geometry"/>
                </mxCell>
                <mxCell id="111" value="Login" style="rounded=0;whiteSpace=wrap;html=1;" vertex="1" parent="1">
                    <mxGeometry x="1510" y="520" width="40" height="20" as="geometry"/>
                </mxCell>
                <mxCell id="112" value="Register" style="rounded=0;whiteSpace=wrap;html=1;" vertex="1" parent="1">
                    <mxGeometry x="1570" y="520" width="60" height="20" as="geometry"/>
                </mxCell>
                <mxCell id="113" value="LOGO" style="ellipse;whiteSpace=wrap;html=1;aspect=fixed;" vertex="1" parent="1">
                    <mxGeometry x="1150" y="505" width="50" height="50" as="geometry"/>
                </mxCell>
                <mxCell id="114" value="Categoria" style="text;html=1;strokeColor=none;fillColor=none;align=center;verticalAlign=middle;whiteSpace=wrap;rounded=0;" vertex="1" parent="1">
                    <mxGeometry x="1365" y="573" width="60" height="30" as="geometry"/>
                </mxCell>
                <mxCell id="115" value="" style="rounded=0;whiteSpace=wrap;html=1;" vertex="1" parent="1">
                    <mxGeometry x="1150" y="610" width="490" height="300" as="geometry"/>
                </mxCell>
                <mxCell id="116" value="" style="rounded=0;whiteSpace=wrap;html=1;" vertex="1" parent="1">
                    <mxGeometry x="1160" y="620" width="130" height="130" as="geometry"/>
                </mxCell>
                <mxCell id="118" value="Nombre" style="text;html=1;strokeColor=none;fillColor=none;align=center;verticalAlign=middle;whiteSpace=wrap;rounded=0;" vertex="1" parent="1">
                    <mxGeometry x="1195" y="627" width="60" height="30" as="geometry"/>
                </mxCell>
                <mxCell id="119" value="Valor" style="text;html=1;strokeColor=none;fillColor=none;align=center;verticalAlign=middle;whiteSpace=wrap;rounded=0;" vertex="1" parent="1">
                    <mxGeometry x="1195" y="657" width="60" height="27.5" as="geometry"/>
                </mxCell>
                <mxCell id="120" value="Descripcion" style="text;html=1;strokeColor=none;fillColor=none;align=center;verticalAlign=middle;whiteSpace=wrap;rounded=0;" vertex="1" parent="1">
                    <mxGeometry x="1195" y="682" width="60" height="30" as="geometry"/>
                </mxCell>
                <mxCell id="123" value="" style="rounded=0;whiteSpace=wrap;html=1;" vertex="1" parent="1">
                    <mxGeometry x="1330" y="620" width="130" height="130" as="geometry"/>
                </mxCell>
                <mxCell id="124" value="Nombre" style="text;html=1;strokeColor=none;fillColor=none;align=center;verticalAlign=middle;whiteSpace=wrap;rounded=0;" vertex="1" parent="1">
                    <mxGeometry x="1365" y="627" width="60" height="30" as="geometry"/>
                </mxCell>
                <mxCell id="125" value="Valor" style="text;html=1;strokeColor=none;fillColor=none;align=center;verticalAlign=middle;whiteSpace=wrap;rounded=0;" vertex="1" parent="1">
                    <mxGeometry x="1365" y="657" width="60" height="27.5" as="geometry"/>
                </mxCell>
                <mxCell id="126" value="Descripcion" style="text;html=1;strokeColor=none;fillColor=none;align=center;verticalAlign=middle;whiteSpace=wrap;rounded=0;" vertex="1" parent="1">
                    <mxGeometry x="1365" y="682" width="60" height="30" as="geometry"/>
                </mxCell>
                <mxCell id="127" value="" style="rounded=0;whiteSpace=wrap;html=1;" vertex="1" parent="1">
                    <mxGeometry x="1500" y="620" width="130" height="130" as="geometry"/>
                </mxCell>
                <mxCell id="128" value="Nombre" style="text;html=1;strokeColor=none;fillColor=none;align=center;verticalAlign=middle;whiteSpace=wrap;rounded=0;" vertex="1" parent="1">
                    <mxGeometry x="1535" y="627" width="60" height="30" as="geometry"/>
                </mxCell>
                <mxCell id="129" value="Valor" style="text;html=1;strokeColor=none;fillColor=none;align=center;verticalAlign=middle;whiteSpace=wrap;rounded=0;" vertex="1" parent="1">
                    <mxGeometry x="1535" y="657" width="60" height="27.5" as="geometry"/>
                </mxCell>
                <mxCell id="130" value="Descripcion" style="text;html=1;strokeColor=none;fillColor=none;align=center;verticalAlign=middle;whiteSpace=wrap;rounded=0;" vertex="1" parent="1">
                    <mxGeometry x="1535" y="682" width="60" height="30" as="geometry"/>
                </mxCell>
                <mxCell id="131" value="" style="rounded=0;whiteSpace=wrap;html=1;" vertex="1" parent="1">
                    <mxGeometry x="1160" y="770" width="130" height="130" as="geometry"/>
                </mxCell>
                <mxCell id="132" value="Nombre" style="text;html=1;strokeColor=none;fillColor=none;align=center;verticalAlign=middle;whiteSpace=wrap;rounded=0;" vertex="1" parent="1">
                    <mxGeometry x="1195" y="777" width="60" height="30" as="geometry"/>
                </mxCell>
                <mxCell id="133" value="Valor" style="text;html=1;strokeColor=none;fillColor=none;align=center;verticalAlign=middle;whiteSpace=wrap;rounded=0;" vertex="1" parent="1">
                    <mxGeometry x="1195" y="807" width="60" height="27.5" as="geometry"/>
                </mxCell>
                <mxCell id="134" value="Descripcion" style="text;html=1;strokeColor=none;fillColor=none;align=center;verticalAlign=middle;whiteSpace=wrap;rounded=0;" vertex="1" parent="1">
                    <mxGeometry x="1195" y="832" width="60" height="30" as="geometry"/>
                </mxCell>
                <mxCell id="135" value="" style="rounded=0;whiteSpace=wrap;html=1;" vertex="1" parent="1">
                    <mxGeometry x="1330" y="770" width="130" height="130" as="geometry"/>
                </mxCell>
                <mxCell id="136" value="Nombre" style="text;html=1;strokeColor=none;fillColor=none;align=center;verticalAlign=middle;whiteSpace=wrap;rounded=0;" vertex="1" parent="1">
                    <mxGeometry x="1365" y="777" width="60" height="30" as="geometry"/>
                </mxCell>
                <mxCell id="137" value="Valor" style="text;html=1;strokeColor=none;fillColor=none;align=center;verticalAlign=middle;whiteSpace=wrap;rounded=0;" vertex="1" parent="1">
                    <mxGeometry x="1365" y="807" width="60" height="27.5" as="geometry"/>
                </mxCell>
                <mxCell id="138" value="Descripcion" style="text;html=1;strokeColor=none;fillColor=none;align=center;verticalAlign=middle;whiteSpace=wrap;rounded=0;" vertex="1" parent="1">
                    <mxGeometry x="1365" y="832" width="60" height="30" as="geometry"/>
                </mxCell>
                <mxCell id="139" value="" style="rounded=0;whiteSpace=wrap;html=1;" vertex="1" parent="1">
                    <mxGeometry x="1500" y="770" width="130" height="130" as="geometry"/>
                </mxCell>
                <mxCell id="140" value="Nombre" style="text;html=1;strokeColor=none;fillColor=none;align=center;verticalAlign=middle;whiteSpace=wrap;rounded=0;" vertex="1" parent="1">
                    <mxGeometry x="1535" y="777" width="60" height="30" as="geometry"/>
                </mxCell>
                <mxCell id="141" value="Valor" style="text;html=1;strokeColor=none;fillColor=none;align=center;verticalAlign=middle;whiteSpace=wrap;rounded=0;" vertex="1" parent="1">
                    <mxGeometry x="1535" y="807" width="60" height="27.5" as="geometry"/>
                </mxCell>
                <mxCell id="142" value="Descripcion" style="text;html=1;strokeColor=none;fillColor=none;align=center;verticalAlign=middle;whiteSpace=wrap;rounded=0;" vertex="1" parent="1">
                    <mxGeometry x="1535" y="832" width="60" height="30" as="geometry"/>
                </mxCell>
                <mxCell id="145" value="" style="rounded=0;whiteSpace=wrap;html=1;" vertex="1" parent="1">
                    <mxGeometry x="1690" y="40" width="510" height="420" as="geometry"/>
                </mxCell>
                <mxCell id="146" value="OBSCUR" style="rounded=0;whiteSpace=wrap;html=1;" vertex="1" parent="1">
                    <mxGeometry x="1690" y="40" width="510" height="60" as="geometry"/>
                </mxCell>
                <mxCell id="147" value="Login" style="rounded=0;whiteSpace=wrap;html=1;" vertex="1" parent="1">
                    <mxGeometry x="2060" y="60" width="40" height="20" as="geometry"/>
                </mxCell>
                <mxCell id="148" value="Register" style="rounded=0;whiteSpace=wrap;html=1;" vertex="1" parent="1">
                    <mxGeometry x="2120" y="60" width="60" height="20" as="geometry"/>
                </mxCell>
                <mxCell id="149" value="LOGO" style="ellipse;whiteSpace=wrap;html=1;aspect=fixed;" vertex="1" parent="1">
                    <mxGeometry x="1700" y="45" width="50" height="50" as="geometry"/>
                </mxCell>
                <mxCell id="150" value="" style="rounded=0;whiteSpace=wrap;html=1;" vertex="1" parent="1">
                    <mxGeometry x="1690" y="500" width="510" height="420" as="geometry"/>
                </mxCell>
                <mxCell id="151" value="OBSCUR" style="rounded=0;whiteSpace=wrap;html=1;" vertex="1" parent="1">
                    <mxGeometry x="1690" y="500" width="510" height="60" as="geometry"/>
                </mxCell>
                <mxCell id="152" value="Login" style="rounded=0;whiteSpace=wrap;html=1;" vertex="1" parent="1">
                    <mxGeometry x="2060" y="520" width="40" height="20" as="geometry"/>
                </mxCell>
                <mxCell id="153" value="Register" style="rounded=0;whiteSpace=wrap;html=1;" vertex="1" parent="1">
                    <mxGeometry x="2120" y="520" width="60" height="20" as="geometry"/>
                </mxCell>
                <mxCell id="154" value="LOGO" style="ellipse;whiteSpace=wrap;html=1;aspect=fixed;" vertex="1" parent="1">
                    <mxGeometry x="1700" y="505" width="50" height="50" as="geometry"/>
                </mxCell>
                <mxCell id="155" value="" style="rounded=0;whiteSpace=wrap;html=1;" vertex="1" parent="1">
                    <mxGeometry x="1855" y="125" width="180" height="170" as="geometry"/>
                </mxCell>
                <mxCell id="156" value="Nombre" style="text;html=1;strokeColor=none;fillColor=none;align=center;verticalAlign=middle;whiteSpace=wrap;rounded=0;" vertex="1" parent="1">
                    <mxGeometry x="1915" y="137" width="60" height="30" as="geometry"/>
                </mxCell>
                <mxCell id="157" value="Comprar" style="rounded=1;whiteSpace=wrap;html=1;" vertex="1" parent="1">
                    <mxGeometry x="1165" y="712" width="120" height="28" as="geometry"/>
                </mxCell>
                <mxCell id="158" value="Comprar" style="rounded=1;whiteSpace=wrap;html=1;" vertex="1" parent="1">
                    <mxGeometry x="1335" y="712" width="120" height="28" as="geometry"/>
                </mxCell>
                <mxCell id="159" value="Comprar" style="rounded=1;whiteSpace=wrap;html=1;" vertex="1" parent="1">
                    <mxGeometry x="1165" y="862" width="120" height="28" as="geometry"/>
                </mxCell>
                <mxCell id="160" value="Comprar" style="rounded=1;whiteSpace=wrap;html=1;" vertex="1" parent="1">
                    <mxGeometry x="1335" y="862" width="120" height="28" as="geometry"/>
                </mxCell>
                <mxCell id="161" value="Comprar" style="rounded=1;whiteSpace=wrap;html=1;" vertex="1" parent="1">
                    <mxGeometry x="1505" y="862" width="120" height="28" as="geometry"/>
                </mxCell>
                <mxCell id="231" style="edgeStyle=none;html=1;exitX=1;exitY=0.5;exitDx=0;exitDy=0;endArrow=classic;endFill=1;entryX=-0.008;entryY=0.519;entryDx=0;entryDy=0;entryPerimeter=0;" edge="1" parent="1" source="162" target="145">
                    <mxGeometry relative="1" as="geometry">
                        <mxPoint x="1670" y="726" as="targetPoint"/>
                        <Array as="points">
                            <mxPoint x="1670" y="730"/>
                            <mxPoint x="1670" y="260"/>
                        </Array>
                    </mxGeometry>
                </mxCell>
                <mxCell id="162" value="Comprar" style="rounded=1;whiteSpace=wrap;html=1;" vertex="1" parent="1">
                    <mxGeometry x="1505" y="712" width="120" height="28" as="geometry"/>
                </mxCell>
                <mxCell id="233" style="edgeStyle=none;html=1;exitX=0.5;exitY=0;exitDx=0;exitDy=0;entryX=0.5;entryY=0;entryDx=0;entryDy=0;endArrow=classic;endFill=1;" edge="1" parent="1" source="163" target="90">
                    <mxGeometry relative="1" as="geometry">
                        <Array as="points">
                            <mxPoint x="1940" y="10"/>
                            <mxPoint x="1395" y="10"/>
                        </Array>
                    </mxGeometry>
                </mxCell>
                <mxCell id="163" value="Contratar" style="rounded=1;whiteSpace=wrap;html=1;" vertex="1" parent="1">
                    <mxGeometry x="1885" y="256" width="120" height="28" as="geometry"/>
                </mxCell>
                <mxCell id="164" value="Valor" style="text;html=1;strokeColor=none;fillColor=none;align=center;verticalAlign=middle;whiteSpace=wrap;rounded=0;" vertex="1" parent="1">
                    <mxGeometry x="1915" y="172.5" width="60" height="30" as="geometry"/>
                </mxCell>
                <mxCell id="166" value="Descripcion" style="text;html=1;strokeColor=none;fillColor=none;align=center;verticalAlign=middle;whiteSpace=wrap;rounded=0;" vertex="1" parent="1">
                    <mxGeometry x="1915" y="214" width="60" height="30" as="geometry"/>
                </mxCell>
                <mxCell id="168" value="" style="childLayout=tableLayout;recursiveResize=0;shadow=0;fillColor=none;" vertex="1" parent="1">
                    <mxGeometry x="1700" y="572" width="250" height="140" as="geometry"/>
                </mxCell>
                <mxCell id="169" value="" style="shape=tableRow;horizontal=0;startSize=0;swimlaneHead=0;swimlaneBody=0;top=0;left=0;bottom=0;right=0;dropTarget=0;collapsible=0;recursiveResize=0;expand=0;fontStyle=0;fillColor=none;strokeColor=inherit;" vertex="1" parent="168">
                    <mxGeometry width="250" height="47" as="geometry"/>
                </mxCell>
                <mxCell id="170" value="ID" style="connectable=0;recursiveResize=0;strokeColor=inherit;fillColor=none;align=center;whiteSpace=wrap;html=1;" vertex="1" parent="169">
                    <mxGeometry width="83" height="47" as="geometry">
                        <mxRectangle width="83" height="47" as="alternateBounds"/>
                    </mxGeometry>
                </mxCell>
                <mxCell id="171" value="Nombre" style="connectable=0;recursiveResize=0;strokeColor=inherit;fillColor=none;align=center;whiteSpace=wrap;html=1;" vertex="1" parent="169">
                    <mxGeometry x="83" width="84" height="47" as="geometry">
                        <mxRectangle width="84" height="47" as="alternateBounds"/>
                    </mxGeometry>
                </mxCell>
                <mxCell id="172" value="Tipo" style="connectable=0;recursiveResize=0;strokeColor=inherit;fillColor=none;align=center;whiteSpace=wrap;html=1;" vertex="1" parent="169">
                    <mxGeometry x="167" width="83" height="47" as="geometry">
                        <mxRectangle width="83" height="47" as="alternateBounds"/>
                    </mxGeometry>
                </mxCell>
                <mxCell id="173" style="shape=tableRow;horizontal=0;startSize=0;swimlaneHead=0;swimlaneBody=0;top=0;left=0;bottom=0;right=0;dropTarget=0;collapsible=0;recursiveResize=0;expand=0;fontStyle=0;fillColor=none;strokeColor=inherit;" vertex="1" parent="168">
                    <mxGeometry y="47" width="250" height="46" as="geometry"/>
                </mxCell>
                <mxCell id="174" value="&amp;lt;id&amp;gt;" style="connectable=0;recursiveResize=0;strokeColor=inherit;fillColor=none;align=center;whiteSpace=wrap;html=1;" vertex="1" parent="173">
                    <mxGeometry width="83" height="46" as="geometry">
                        <mxRectangle width="83" height="46" as="alternateBounds"/>
                    </mxGeometry>
                </mxCell>
                <mxCell id="175" value="&amp;lt;nombre&amp;gt;" style="connectable=0;recursiveResize=0;strokeColor=inherit;fillColor=none;align=center;whiteSpace=wrap;html=1;" vertex="1" parent="173">
                    <mxGeometry x="83" width="84" height="46" as="geometry">
                        <mxRectangle width="84" height="46" as="alternateBounds"/>
                    </mxGeometry>
                </mxCell>
                <mxCell id="176" value="&amp;lt;tipo&amp;gt;" style="connectable=0;recursiveResize=0;strokeColor=inherit;fillColor=none;align=center;whiteSpace=wrap;html=1;" vertex="1" parent="173">
                    <mxGeometry x="167" width="83" height="46" as="geometry">
                        <mxRectangle width="83" height="46" as="alternateBounds"/>
                    </mxGeometry>
                </mxCell>
                <mxCell id="177" style="shape=tableRow;horizontal=0;startSize=0;swimlaneHead=0;swimlaneBody=0;top=0;left=0;bottom=0;right=0;dropTarget=0;collapsible=0;recursiveResize=0;expand=0;fontStyle=0;fillColor=none;strokeColor=inherit;" vertex="1" parent="168">
                    <mxGeometry y="93" width="250" height="47" as="geometry"/>
                </mxCell>
                <mxCell id="178" value="&amp;lt;id&amp;gt;" style="connectable=0;recursiveResize=0;strokeColor=inherit;fillColor=none;align=center;whiteSpace=wrap;html=1;" vertex="1" parent="177">
                    <mxGeometry width="83" height="47" as="geometry">
                        <mxRectangle width="83" height="47" as="alternateBounds"/>
                    </mxGeometry>
                </mxCell>
                <mxCell id="179" value="&amp;lt;nombre&amp;gt;" style="connectable=0;recursiveResize=0;strokeColor=inherit;fillColor=none;align=center;whiteSpace=wrap;html=1;" vertex="1" parent="177">
                    <mxGeometry x="83" width="84" height="47" as="geometry">
                        <mxRectangle width="84" height="47" as="alternateBounds"/>
                    </mxGeometry>
                </mxCell>
                <mxCell id="180" value="&amp;lt;tipo&amp;gt;" style="connectable=0;recursiveResize=0;strokeColor=inherit;fillColor=none;align=center;whiteSpace=wrap;html=1;" vertex="1" parent="177">
                    <mxGeometry x="167" width="83" height="47" as="geometry">
                        <mxRectangle width="83" height="47" as="alternateBounds"/>
                    </mxGeometry>
                </mxCell>
                <mxCell id="207" value="" style="childLayout=tableLayout;recursiveResize=0;shadow=0;fillColor=none;" vertex="1" parent="1">
                    <mxGeometry x="1950" y="573" width="240" height="140" as="geometry"/>
                </mxCell>
                <mxCell id="208" value="" style="shape=tableRow;horizontal=0;startSize=0;swimlaneHead=0;swimlaneBody=0;top=0;left=0;bottom=0;right=0;dropTarget=0;collapsible=0;recursiveResize=0;expand=0;fontStyle=0;fillColor=none;strokeColor=inherit;" vertex="1" parent="207">
                    <mxGeometry width="240" height="47" as="geometry"/>
                </mxCell>
                <mxCell id="209" value="Descripcion" style="connectable=0;recursiveResize=0;strokeColor=inherit;fillColor=none;align=center;whiteSpace=wrap;html=1;" vertex="1" parent="208">
                    <mxGeometry width="80" height="47" as="geometry">
                        <mxRectangle width="80" height="47" as="alternateBounds"/>
                    </mxGeometry>
                </mxCell>
                <mxCell id="210" value="Valor" style="connectable=0;recursiveResize=0;strokeColor=inherit;fillColor=none;align=center;whiteSpace=wrap;html=1;" vertex="1" parent="208">
                    <mxGeometry x="80" width="80" height="47" as="geometry">
                        <mxRectangle width="80" height="47" as="alternateBounds"/>
                    </mxGeometry>
                </mxCell>
                <mxCell id="211" value="" style="connectable=0;recursiveResize=0;strokeColor=inherit;fillColor=none;align=center;whiteSpace=wrap;html=1;" vertex="1" parent="208">
                    <mxGeometry x="160" width="80" height="47" as="geometry">
                        <mxRectangle width="80" height="47" as="alternateBounds"/>
                    </mxGeometry>
                </mxCell>
                <mxCell id="212" style="shape=tableRow;horizontal=0;startSize=0;swimlaneHead=0;swimlaneBody=0;top=0;left=0;bottom=0;right=0;dropTarget=0;collapsible=0;recursiveResize=0;expand=0;fontStyle=0;fillColor=none;strokeColor=inherit;" vertex="1" parent="207">
                    <mxGeometry y="47" width="240" height="46" as="geometry"/>
                </mxCell>
                <mxCell id="213" value="&amp;lt;descripcion&amp;gt;" style="connectable=0;recursiveResize=0;strokeColor=inherit;fillColor=none;align=center;whiteSpace=wrap;html=1;" vertex="1" parent="212">
                    <mxGeometry width="80" height="46" as="geometry">
                        <mxRectangle width="80" height="46" as="alternateBounds"/>
                    </mxGeometry>
                </mxCell>
                <mxCell id="214" value="&amp;lt;valor&amp;gt;" style="connectable=0;recursiveResize=0;strokeColor=inherit;fillColor=none;align=center;whiteSpace=wrap;html=1;" vertex="1" parent="212">
                    <mxGeometry x="80" width="80" height="46" as="geometry">
                        <mxRectangle width="80" height="46" as="alternateBounds"/>
                    </mxGeometry>
                </mxCell>
                <mxCell id="215" value="Delete" style="connectable=0;recursiveResize=0;strokeColor=inherit;fillColor=none;align=center;whiteSpace=wrap;html=1;" vertex="1" parent="212">
                    <mxGeometry x="160" width="80" height="46" as="geometry">
                        <mxRectangle width="80" height="46" as="alternateBounds"/>
                    </mxGeometry>
                </mxCell>
                <mxCell id="216" style="shape=tableRow;horizontal=0;startSize=0;swimlaneHead=0;swimlaneBody=0;top=0;left=0;bottom=0;right=0;dropTarget=0;collapsible=0;recursiveResize=0;expand=0;fontStyle=0;fillColor=none;strokeColor=inherit;" vertex="1" parent="207">
                    <mxGeometry y="93" width="240" height="47" as="geometry"/>
                </mxCell>
                <mxCell id="217" value="&amp;lt;descripcion&amp;gt;" style="connectable=0;recursiveResize=0;strokeColor=inherit;fillColor=none;align=center;whiteSpace=wrap;html=1;" vertex="1" parent="216">
                    <mxGeometry width="80" height="47" as="geometry">
                        <mxRectangle width="80" height="47" as="alternateBounds"/>
                    </mxGeometry>
                </mxCell>
                <mxCell id="218" value="&amp;lt;valor&amp;gt;" style="connectable=0;recursiveResize=0;strokeColor=inherit;fillColor=none;align=center;whiteSpace=wrap;html=1;" vertex="1" parent="216">
                    <mxGeometry x="80" width="80" height="47" as="geometry">
                        <mxRectangle width="80" height="47" as="alternateBounds"/>
                    </mxGeometry>
                </mxCell>
                <mxCell id="219" value="Delete" style="connectable=0;recursiveResize=0;strokeColor=inherit;fillColor=none;align=center;whiteSpace=wrap;html=1;" vertex="1" parent="216">
                    <mxGeometry x="160" width="80" height="47" as="geometry">
                        <mxRectangle width="80" height="47" as="alternateBounds"/>
                    </mxGeometry>
                </mxCell>
                <mxCell id="222" value="" style="rounded=0;whiteSpace=wrap;html=1;" vertex="1" parent="1">
                    <mxGeometry x="1700" y="720" width="165" height="190" as="geometry"/>
                </mxCell>
                <mxCell id="223" value="Nombre" style="rounded=0;whiteSpace=wrap;html=1;" vertex="1" parent="1">
                    <mxGeometry x="1722.5" y="760" width="120" height="25" as="geometry"/>
                </mxCell>
                <mxCell id="224" value="Register" style="text;html=1;strokeColor=none;fillColor=none;align=center;verticalAlign=middle;whiteSpace=wrap;rounded=0;" vertex="1" parent="1">
                    <mxGeometry x="1752.5" y="720" width="60" height="30" as="geometry"/>
                </mxCell>
                <mxCell id="226" value="Tipo" style="rounded=0;whiteSpace=wrap;html=1;" vertex="1" parent="1">
                    <mxGeometry x="1722.5" y="785" width="120" height="25" as="geometry"/>
                </mxCell>
                <mxCell id="227" value="Descripcion" style="rounded=0;whiteSpace=wrap;html=1;" vertex="1" parent="1">
                    <mxGeometry x="1722.5" y="810" width="120" height="25" as="geometry"/>
                </mxCell>
                <mxCell id="228" value="Valor" style="rounded=0;whiteSpace=wrap;html=1;" vertex="1" parent="1">
                    <mxGeometry x="1722.5" y="835" width="120" height="25" as="geometry"/>
                </mxCell>
                <mxCell id="229" value="Register" style="rounded=1;whiteSpace=wrap;html=1;" vertex="1" parent="1">
                    <mxGeometry x="1722.5" y="875" width="120" height="20" as="geometry"/>
                </mxCell>
            </root>
        </mxGraphModel>
    </diagram>
</mxfile>